# xmcd
#
# Track frame offsets:
# 150
# 16252
# 32646
# 45660
# 62810
# 77919
# 94219
# 107145
# 120743
# 133891
# 149907
# 166454
# 180742
# 194775
# 211953
# 227685
# 242137
# 257724
# 269439
# 284183
# 300265
# 317417
# 332436
# 341624
# 356541
#
# Disc length: 4790 seconds
#
#
# Revision: 0
# Processed by: cddbd v1.5.2PL0 Copyright (c) Steve Scherf et al.
# Submitted via: FreeRIP 2.951 
#
DISCID=8312b419
DTITLE=vitor e leo - Alessa
DYEAR=2007
DGENRE=Country
TTITLE0=Sandra 01
TTITLE1=sandra 02
TTITLE2=sandra 03
TTITLE3=sandra 04
TTITLE4=sandra 05
TTITLE5=sandra 06
TTITLE6=sandra 07
TTITLE7=sandra 08
TTITLE8=sandra 09
TTITLE9=sandra 10
TTITLE10=sandra 11
TTITLE11=sandra 12
TTITLE12=sandra 13
TTITLE13=sandra 14
TTITLE14=
TTITLE15=sandra 16
TTITLE16=sandra 17
TTITLE17=sandra 18
TTITLE18=sandra 19
TTITLE19=sandra 20
TTITLE20=sandra 21
TTITLE21=sandra 22
TTITLE22=sandra 23
TTITLE23=sandra 24
TTITLE24=sandra25
EXTD=gtyhrtuyuiuyooui
EXTT0=
EXTT1=
EXTT2=
EXTT3=
EXTT4=
EXTT5=
EXTT6=
EXTT7=
EXTT8=
EXTT9=
EXTT10=
EXTT11=
EXTT12=
EXTT13=
EXTT14=
EXTT15=
EXTT16=
EXTT17=
EXTT18=
EXTT19=
EXTT20=
EXTT21=
EXTT22=
EXTT23=
EXTT24=
PLAYORDER=
